<svg width="650" height="321" viewBox="0 0 881 321" fill="none" xmlns="http://www.w3.org/2000/svg">
<path d="M841.641 104.471C820.792 98.094 804.791 84.44 789.662 69.293C775.098 54.712 760.672 39.354 741.712 30.484C702.625 12.198 656.704 21.471 618.42 37.1491C575.642 54.6681 535.454 81.0291 489.193 88.7191C466.508 92.4901 442.234 90.6791 422.477 78.0101C406.107 67.5141 397.235 50.8891 393.538 32.2011C391.438 21.5861 390.718 10.8001 390.151 0.00206184L385.201 0.0020627C385.357 3.06306 385.525 6.1191 385.737 9.1621C386.968 26.8431 389.374 45.2151 398.669 60.6841C409.226 78.2541 427.935 89.4101 447.737 93.4651C471.901 98.4131 496.961 93.6971 520.032 86.0301C542.261 78.6431 563.308 68.2211 584.37 58.0801C624.571 38.7251 669.126 19.081 714.857 27.244C725.554 29.154 735.943 32.667 745.421 38.008C754.776 43.28 763.011 50.202 770.77 57.574C785.951 71.999 799.694 88.393 817.824 99.309C836.566 110.595 859.153 115.562 880.903 113.243C880.935 113.239 880.968 113.234 881 113.231L881 108.163C867.839 109.622 854.405 108.374 841.641 104.471Z" fill="#EC255A"/>
<path d="M815.063 28.9721C767.225 11.1021 714.541 27.9831 678.768 45.2931C660.362 54.1991 642.429 64.7661 625.087 74.9841C602.637 88.2111 579.423 101.889 555.003 112.061C531.169 121.991 470.692 141.746 424.03 110.841C397.186 93.0631 378.528 60.2641 368.572 13.3551C367.635 8.94115 366.787 4.47417 365.971 0.000166344L364.955 0.000166522C365.782 4.54217 366.642 9.07815 367.594 13.5621C377.607 60.7371 396.408 93.7471 423.478 111.675C470.546 142.848 531.406 122.975 555.388 112.985C579.871 102.786 603.116 89.0901 625.595 75.8451C642.92 65.6371 660.835 55.0811 679.204 46.1931C714.801 28.9671 767.206 12.1581 814.714 29.9091C831.645 36.234 847.086 46.6771 862.019 56.7761C868.245 60.988 874.546 65.2401 880.998 69.2291L880.998 68.0541C874.742 64.1681 868.626 60.037 862.578 55.947C847.597 45.816 832.107 35.3391 815.063 28.9721Z" fill="white"/>
<path d="M765.503 181.088C764.829 181.088 764.283 181.634 764.283 182.308C764.283 182.982 764.829 183.528 765.503 183.528C766.177 183.528 766.723 182.982 766.723 182.308C766.723 181.634 766.177 181.088 765.503 181.088Z" fill="white"/>
<path d="M747.843 181.088C747.169 181.088 746.623 181.634 746.623 182.308C746.623 182.982 747.169 183.528 747.843 183.528C748.517 183.528 749.063 182.982 749.063 182.308C749.063 181.634 748.517 181.088 747.843 181.088Z" fill="#ED1C24"/>
<path d="M730.182 181.088C729.508 181.088 728.962 181.634 728.962 182.308C728.962 182.982 729.508 183.528 730.182 183.528C730.856 183.528 731.402 182.982 731.402 182.308C731.402 181.634 730.856 181.088 730.182 181.088Z" fill="#ED1C24"/>
<path d="M712.522 181.088C711.848 181.088 711.302 181.634 711.302 182.308C711.302 182.982 711.848 183.528 712.522 183.528C713.196 183.528 713.742 182.982 713.742 182.308C713.742 181.634 713.196 181.088 712.522 181.088Z" fill="white"/>
<path d="M694.862 181.088C694.188 181.088 693.642 181.634 693.642 182.308C693.642 182.982 694.188 183.528 694.862 183.528C695.536 183.528 696.082 182.982 696.082 182.308C696.082 181.634 695.536 181.088 694.862 181.088Z" fill="#ED1C24"/>
<path d="M677.201 181.088C676.527 181.088 675.981 181.634 675.981 182.308C675.981 182.982 676.527 183.528 677.201 183.528C677.875 183.528 678.421 182.982 678.421 182.308C678.421 181.634 677.875 181.088 677.201 181.088Z" fill="#ED1C24"/>
<path d="M658.321 182.308C658.321 181.634 658.867 181.088 659.541 181.088C660.215 181.088 660.761 181.634 660.761 182.308C660.761 182.982 660.215 183.528 659.541 183.528C658.867 183.528 658.321 182.982 658.321 182.308Z" fill="#ED1C24"/>
<path d="M641.881 181.088C641.207 181.088 640.661 181.634 640.661 182.308C640.661 182.982 641.207 183.528 641.881 183.528C642.555 183.528 643.101 182.982 643.101 182.308C643.101 181.634 642.555 181.088 641.881 181.088Z" fill="#ED1C24"/>
<path d="M624.22 181.088C623.546 181.088 623 181.634 623 182.308C623 182.982 623.546 183.528 624.22 183.528C624.894 183.528 625.44 182.982 625.44 182.308C625.44 181.634 624.894 181.088 624.22 181.088Z" fill="#ED1C24"/>
<path d="M765.503 169.217C764.829 169.217 764.283 169.763 764.283 170.437C764.283 171.111 764.829 171.657 765.503 171.657C766.177 171.657 766.723 171.111 766.723 170.437C766.723 169.763 766.177 169.217 765.503 169.217Z" fill="#ED1C24"/>
<path d="M747.843 169.217C747.169 169.217 746.623 169.763 746.623 170.437C746.623 171.111 747.169 171.657 747.843 171.657C748.517 171.657 749.063 171.111 749.063 170.437C749.063 169.763 748.517 169.217 747.843 169.217Z" fill="#ED1C24"/>
<path d="M730.182 169.217C729.508 169.217 728.962 169.763 728.962 170.437C728.962 171.111 729.508 171.657 730.182 171.657C730.856 171.657 731.402 171.111 731.402 170.437C731.402 169.763 730.856 169.217 730.182 169.217Z" fill="#ED1C24"/>
<path d="M712.522 169.217C711.848 169.217 711.302 169.763 711.302 170.437C711.302 171.111 711.848 171.657 712.522 171.657C713.196 171.657 713.742 171.111 713.742 170.437C713.742 169.763 713.196 169.217 712.522 169.217Z" fill="#ED1C24"/>
<path d="M694.862 169.217C694.188 169.217 693.642 169.763 693.642 170.437C693.642 171.111 694.188 171.657 694.862 171.657C695.536 171.657 696.082 171.111 696.082 170.437C696.082 169.763 695.536 169.217 694.862 169.217Z" fill="#ED1C24"/>
<path d="M677.201 169.217C676.527 169.217 675.981 169.763 675.981 170.437C675.981 171.111 676.527 171.657 677.201 171.657C677.875 171.657 678.421 171.111 678.421 170.437C678.421 169.763 677.875 169.217 677.201 169.217Z" fill="white"/>
<path d="M658.321 170.437C658.321 169.763 658.867 169.217 659.541 169.217C660.215 169.217 660.761 169.763 660.761 170.437C660.761 171.111 660.215 171.657 659.541 171.657C658.867 171.657 658.321 171.111 658.321 170.437Z" fill="#ED1C24"/>
<path d="M641.881 169.217C641.207 169.217 640.661 169.763 640.661 170.437C640.661 171.111 641.207 171.657 641.881 171.657C642.555 171.657 643.101 171.111 643.101 170.437C643.101 169.763 642.555 169.217 641.881 169.217Z" fill="#ED1C24"/>
<path d="M624.22 169.217C623.546 169.217 623 169.763 623 170.437C623 171.111 623.546 171.657 624.22 171.657C624.894 171.657 625.44 171.111 625.44 170.437C625.44 169.763 624.894 169.217 624.22 169.217Z" fill="white"/>
<path d="M765.503 157.346C764.829 157.346 764.283 157.892 764.283 158.566C764.283 159.24 764.829 159.786 765.503 159.786C766.177 159.786 766.723 159.24 766.723 158.566C766.723 157.892 766.177 157.346 765.503 157.346Z" fill="#ED1C24"/>
<path d="M747.843 157.346C747.169 157.346 746.623 157.892 746.623 158.566C746.623 159.24 747.169 159.786 747.843 159.786C748.517 159.786 749.063 159.24 749.063 158.566C749.063 157.892 748.517 157.346 747.843 157.346Z" fill="white"/>
<path d="M730.182 157.346C729.508 157.346 728.962 157.892 728.962 158.566C728.962 159.24 729.508 159.786 730.182 159.786C730.856 159.786 731.402 159.24 731.402 158.566C731.402 157.892 730.856 157.346 730.182 157.346Z" fill="#ED1C24"/>
<path d="M712.522 157.346C711.848 157.346 711.302 157.892 711.302 158.566C711.302 159.24 711.848 159.786 712.522 159.786C713.196 159.786 713.742 159.24 713.742 158.566C713.742 157.892 713.196 157.346 712.522 157.346Z" fill="#ED1C24"/>
<path d="M694.862 157.346C694.188 157.346 693.642 157.892 693.642 158.566C693.642 159.24 694.188 159.786 694.862 159.786C695.536 159.786 696.082 159.24 696.082 158.566C696.082 157.892 695.536 157.346 694.862 157.346Z" fill="#ED1C24"/>
<path d="M677.201 157.346C676.527 157.346 675.981 157.892 675.981 158.566C675.981 159.24 676.527 159.786 677.201 159.786C677.875 159.786 678.421 159.24 678.421 158.566C678.421 157.892 677.875 157.346 677.201 157.346Z" fill="#ED1C24"/>
<path d="M658.321 158.566C658.321 157.892 658.867 157.346 659.541 157.346C660.215 157.346 660.761 157.892 660.761 158.566C660.761 159.24 660.215 159.786 659.541 159.786C658.867 159.786 658.321 159.24 658.321 158.566Z" fill="white"/>
<path d="M641.881 157.346C641.207 157.346 640.661 157.892 640.661 158.566C640.661 159.24 641.207 159.786 641.881 159.786C642.555 159.786 643.101 159.24 643.101 158.566C643.101 157.892 642.555 157.346 641.881 157.346Z" fill="#ED1C24"/>
<path d="M624.22 157.346C623.546 157.346 623 157.892 623 158.566C623 159.24 623.546 159.786 624.22 159.786C624.894 159.786 625.44 159.24 625.44 158.566C625.44 157.892 624.894 157.346 624.22 157.346Z" fill="#ED1C24"/>
<path d="M765.503 145.475C764.829 145.475 764.283 146.021 764.283 146.695C764.283 147.369 764.829 147.915 765.503 147.915C766.177 147.915 766.723 147.369 766.723 146.695C766.723 146.021 766.177 145.475 765.503 145.475Z" fill="#ED1C24"/>
<path d="M747.843 145.475C747.169 145.475 746.623 146.021 746.623 146.695C746.623 147.369 747.169 147.915 747.843 147.915C748.517 147.915 749.063 147.369 749.063 146.695C749.063 146.021 748.517 145.475 747.843 145.475Z" fill="#ED1C24"/>
<path d="M730.182 145.475C729.508 145.475 728.962 146.021 728.962 146.695C728.962 147.369 729.508 147.915 730.182 147.915C730.856 147.915 731.402 147.369 731.402 146.695C731.402 146.021 730.856 145.475 730.182 145.475Z" fill="white"/>
<path d="M712.522 145.475C711.848 145.475 711.302 146.021 711.302 146.695C711.302 147.369 711.848 147.915 712.522 147.915C713.196 147.915 713.742 147.369 713.742 146.695C713.742 146.021 713.196 145.475 712.522 145.475Z" fill="#ED1C24"/>
<path d="M694.862 145.475C694.188 145.475 693.642 146.021 693.642 146.695C693.642 147.369 694.188 147.915 694.862 147.915C695.536 147.915 696.082 147.369 696.082 146.695C696.082 146.021 695.536 145.475 694.862 145.475Z" fill="white"/>
<path d="M677.201 145.475C676.527 145.475 675.981 146.021 675.981 146.695C675.981 147.369 676.527 147.915 677.201 147.915C677.875 147.915 678.421 147.369 678.421 146.695C678.421 146.021 677.875 145.475 677.201 145.475Z" fill="#ED1C24"/>
<path d="M658.321 146.695C658.321 146.021 658.867 145.475 659.541 145.475C660.215 145.475 660.761 146.021 660.761 146.695C660.761 147.369 660.215 147.915 659.541 147.915C658.867 147.915 658.321 147.369 658.321 146.695Z" fill="#ED1C24"/>
<path d="M641.881 145.475C641.207 145.475 640.661 146.021 640.661 146.695C640.661 147.369 641.207 147.915 641.881 147.915C642.555 147.915 643.101 147.369 643.101 146.695C643.101 146.021 642.555 145.475 641.881 145.475Z" fill="#ED1C24"/>
<path d="M624.22 145.475C623.546 145.475 623 146.021 623 146.695C623 147.369 623.546 147.915 624.22 147.915C624.894 147.915 625.44 147.369 625.44 146.695C625.44 146.021 624.894 145.475 624.22 145.475Z" fill="#ED1C24"/>
<path d="M765.503 133.604C764.829 133.604 764.283 134.15 764.283 134.824C764.283 135.498 764.829 136.044 765.503 136.044C766.177 136.044 766.723 135.498 766.723 134.824C766.723 134.15 766.177 133.604 765.503 133.604Z" fill="#ED1C24"/>
<path d="M747.843 133.604C747.169 133.604 746.623 134.15 746.623 134.824C746.623 135.498 747.169 136.044 747.843 136.044C748.517 136.044 749.063 135.498 749.063 134.824C749.063 134.15 748.517 133.604 747.843 133.604Z" fill="#ED1C24"/>
<path d="M730.182 133.604C729.508 133.604 728.962 134.15 728.962 134.824C728.962 135.498 729.508 136.044 730.182 136.044C730.856 136.044 731.402 135.498 731.402 134.824C731.402 134.15 730.856 133.604 730.182 133.604Z" fill="#ED1C24"/>
<path d="M712.522 133.604C711.848 133.604 711.302 134.15 711.302 134.824C711.302 135.498 711.848 136.044 712.522 136.044C713.196 136.044 713.742 135.498 713.742 134.824C713.742 134.15 713.196 133.604 712.522 133.604Z" fill="#ED1C24"/>
<path d="M694.862 133.604C694.188 133.604 693.642 134.15 693.642 134.824C693.642 135.498 694.188 136.044 694.862 136.044C695.536 136.044 696.082 135.498 696.082 134.824C696.082 134.15 695.536 133.604 694.862 133.604Z" fill="#ED1C24"/>
<path d="M677.201 133.604C676.527 133.604 675.981 134.15 675.981 134.824C675.981 135.498 676.527 136.044 677.201 136.044C677.875 136.044 678.421 135.498 678.421 134.824C678.421 134.15 677.875 133.604 677.201 133.604Z" fill="#ED1C24"/>
<path d="M658.321 134.824C658.321 134.15 658.867 133.604 659.541 133.604C660.215 133.604 660.761 134.15 660.761 134.824C660.761 135.498 660.215 136.044 659.541 136.044C658.867 136.044 658.321 135.498 658.321 134.824Z" fill="#ED1C24"/>
<path d="M641.881 133.604C641.207 133.604 640.661 134.15 640.661 134.824C640.661 135.498 641.207 136.044 641.881 136.044C642.555 136.044 643.101 135.498 643.101 134.824C643.101 134.15 642.555 133.604 641.881 133.604Z" fill="white"/>
<path d="M624.22 133.604C623.546 133.604 623 134.15 623 134.824C623 135.498 623.546 136.044 624.22 136.044C624.894 136.044 625.44 135.498 625.44 134.824C625.44 134.15 624.894 133.604 624.22 133.604Z" fill="white"/>
<path d="M427.025 178.685C423.173 172.013 414.641 169.727 407.968 173.579C401.296 177.431 399.01 185.963 402.862 192.636C406.714 199.308 415.246 201.594 421.919 197.742C428.591 193.89 430.877 185.358 427.025 178.685Z" stroke="#ED1C24" stroke-miterlimit="10"/>
<path d="M257.424 179.143L264.497 172.07L246.3 153.874L264.497 135.677L257.424 128.604L232.155 153.874L257.424 179.143Z" stroke="#ED1C24" stroke-width="0.6748" stroke-miterlimit="10"/>
<path opacity="0.9375" d="M231.791 153.874L249.987 135.677L242.914 128.604L217.645 153.874L242.914 179.143L249.987 172.07L231.791 153.874Z" stroke="#ED1C24" stroke-width="0.6748" stroke-miterlimit="10"/>
<path opacity="0.875" d="M217.281 153.874L235.477 135.677L228.405 128.604L203.135 153.874L228.405 179.143L235.477 172.07L217.281 153.874Z" stroke="#ED1C24" stroke-width="0.6748" stroke-miterlimit="10"/>
<path opacity="0.8125" d="M202.771 153.874L220.968 135.677L213.895 128.604L188.626 153.874L213.895 179.143L220.968 172.07L202.771 153.874Z" stroke="#ED1C24" stroke-width="0.6748" stroke-miterlimit="10"/>
<path opacity="0.75" d="M188.262 153.874L206.458 135.677L199.385 128.604L174.116 153.874L199.385 179.143L206.458 172.07L188.262 153.874Z" stroke="#ED1C24" stroke-width="0.6748" stroke-miterlimit="10"/>
<path opacity="0.6875" d="M173.752 153.874L191.948 135.677L184.876 128.604L159.606 153.874L184.876 179.143L191.948 172.07L173.752 153.874Z" stroke="#ED1C24" stroke-width="0.6748" stroke-miterlimit="10"/>
<path opacity="0.625" d="M159.242 153.874L177.439 135.677L170.366 128.604L145.097 153.874L170.366 179.143L177.439 172.07L159.242 153.874Z" stroke="#ED1C24" stroke-width="0.6748" stroke-miterlimit="10"/>
<path opacity="0.5625" d="M144.733 153.874L162.929 135.677L155.856 128.604L130.587 153.874L155.856 179.143L162.929 172.07L144.733 153.874Z" stroke="#ED1C24" stroke-width="0.6748" stroke-miterlimit="10"/>
<path opacity="0.5" d="M130.223 153.874L148.419 135.677L141.347 128.604L116.077 153.874L141.347 179.143L148.419 172.07L130.223 153.874Z" stroke="#ED1C24" stroke-width="0.6748" stroke-miterlimit="10"/>
<path opacity="0.4375" d="M115.713 153.874L133.91 135.677L126.837 128.604L101.568 153.874L126.837 179.143L133.91 172.07L115.713 153.874Z" stroke="#ED1C24" stroke-width="0.6748" stroke-miterlimit="10"/>
<path opacity="0.375" d="M101.204 153.874L119.4 135.677L112.327 128.604L87.058 153.874L112.327 179.143L119.4 172.07L101.204 153.874Z" stroke="#ED1C24" stroke-width="0.6748" stroke-miterlimit="10"/>
<path opacity="0.3125" d="M86.694 153.874L104.89 135.677L97.818 128.604L72.549 153.874L97.818 179.143L104.89 172.07L86.694 153.874Z" stroke="#ED1C24" stroke-width="0.6748" stroke-miterlimit="10"/>
<path opacity="0.25" d="M72.185 153.874L90.381 135.677L83.308 128.604L58.039 153.874L83.308 179.143L90.381 172.07L72.185 153.874Z" stroke="#ED1C24" stroke-width="0.6748" stroke-miterlimit="10"/>
<path opacity="0.1875" d="M57.675 153.874L75.871 135.677L68.798 128.604L43.529 153.874L68.798 179.143L75.871 172.07L57.675 153.874Z" stroke="#ED1C24" stroke-width="0.6748" stroke-miterlimit="10"/>
<path opacity="0.125" d="M43.1651 153.874L61.3621 135.677L54.2891 128.604L29.0191 153.874L54.2891 179.143L61.3621 172.07L43.1651 153.874Z" stroke="#ED1C24" stroke-width="0.6748" stroke-miterlimit="10"/>
<path opacity="0.0625" d="M28.656 153.874L46.852 135.677L39.779 128.604L14.5101 153.874L39.7791 179.143L46.852 172.07L28.656 153.874Z" stroke="#ED1C24" stroke-width="0.6748" stroke-miterlimit="10"/>
<path fill-rule="evenodd" clip-rule="evenodd" d="M808.44 318.605L792.341 309.193L792.341 290.865L808.44 281.453L824.293 290.866L824.293 309.192L808.44 318.605ZM808.438 318.039L823.805 308.915L823.805 291.144L808.438 282.02L792.829 291.145L792.829 308.914L808.438 318.039Z" fill="#ED1C24"/>
<path d="M806.488 318.322C806.488 317.244 807.361 316.371 808.439 316.371C809.517 316.371 810.39 317.244 810.39 318.322C810.39 319.399 809.517 320.273 808.439 320.273C807.361 320.273 806.488 319.399 806.488 318.322Z" fill="#ED1C24"/>
<path d="M806.488 282.224C806.488 281.147 807.361 280.273 808.439 280.273C809.517 280.273 810.39 281.147 810.39 282.224C810.39 283.302 809.517 284.175 808.439 284.175C807.361 284.175 806.488 283.302 806.488 282.224Z" fill="#ED1C24"/>
<path d="M822.098 291.492C822.098 290.415 822.971 289.541 824.049 289.541C825.126 289.541 826 290.415 826 291.492C826 292.57 825.126 293.444 824.049 293.444C822.971 293.444 822.098 292.57 822.098 291.492Z" fill="#ED1C24"/>
<path d="M822.098 309.053C822.098 307.976 822.971 307.102 824.049 307.102C825.126 307.102 826 307.976 826 309.053C826 310.131 825.126 311.005 824.049 311.005C822.971 311.005 822.098 310.131 822.098 309.053Z" fill="#ED1C24"/>
<path d="M790.878 291.492C790.878 290.415 791.752 289.541 792.829 289.541C793.907 289.541 794.78 290.415 794.78 291.492C794.78 292.57 793.907 293.444 792.829 293.444C791.752 293.444 790.878 292.57 790.878 291.492Z" fill="#ED1C24"/>
<path d="M790.878 309.053C790.878 307.976 791.752 307.102 792.829 307.102C793.907 307.102 794.78 307.976 794.78 309.053C794.78 310.131 793.907 311.005 792.829 311.005C791.752 311.005 790.878 310.131 790.878 309.053Z" fill="#ED1C24"/>
</svg>
