<svg width="650" height="180" viewBox="0 0 881 321" fill="none" xmlns="http://www.w3.org/2000/svg">
<path d="M39.359 104.471C60.208 98.094 76.209 84.44 91.338 69.293C105.902 54.712 120.328 39.354 139.288 30.484C178.375 12.198 224.296 21.471 262.58 37.1491C305.358 54.6681 345.546 81.0291 391.807 88.7191C414.492 92.4901 438.766 90.6791 458.523 78.0101C474.893 67.5141 483.765 50.8891 487.462 32.2011C489.562 21.5861 490.282 10.8001 490.849 0.00206184L495.799 0.0020627C495.643 3.06306 495.475 6.1191 495.263 9.1621C494.032 26.8431 491.626 45.2151 482.331 60.6841C471.774 78.2541 453.065 89.4101 433.263 93.4651C409.099 98.4131 384.039 93.6971 360.968 86.0301C338.739 78.6431 317.692 68.2211 296.63 58.0801C256.429 38.7251 211.874 19.081 166.143 27.244C155.446 29.154 145.057 32.667 135.579 38.008C126.224 43.28 117.989 50.202 110.23 57.574C95.049 71.999 81.306 88.393 63.176 99.309C44.434 110.595 21.847 115.562 0.0970001 113.243C0.0650001 113.239 0.0320001 113.234 9.9584e-08 113.231L9.857e-07 108.163C13.161 109.622 26.595 108.374 39.359 104.471Z" fill="#EC255A"/>
<path d="M65.937 28.9721C113.775 11.1021 166.459 27.9831 202.232 45.2931C220.638 54.1991 238.571 64.7661 255.913 74.9841C278.363 88.2111 301.577 101.889 325.997 112.061C349.831 121.991 410.308 141.746 456.97 110.841C483.814 93.0631 502.472 60.2641 512.428 13.3551C513.365 8.94115 514.213 4.47417 515.029 0.000166344L516.045 0.000166522C515.218 4.54217 514.358 9.07815 513.406 13.5621C503.393 60.7371 484.592 93.7471 457.522 111.675C410.454 142.848 349.594 122.975 325.612 112.985C301.129 102.786 277.884 89.0901 255.405 75.8451C238.08 65.6371 220.165 55.0811 201.796 46.1931C166.199 28.9671 113.794 12.1581 66.286 29.9091C49.355 36.234 33.914 46.6771 18.981 56.7761C12.755 60.988 6.45396 65.2401 0.00196348 69.2291L0.00196369 68.0541C6.25796 64.1681 12.374 60.037 18.422 55.947C33.403 45.816 48.893 35.3391 65.937 28.9721Z" fill="white"/>
<path d="M103.22 189.088C103.894 189.088 104.44 189.634 104.44 190.308C104.44 190.982 103.894 191.528 103.22 191.528C102.546 191.528 102 190.982 102 190.308C102 189.634 102.546 189.088 103.22 189.088Z" fill="white"/>
<path d="M120.88 189.088C121.554 189.088 122.1 189.634 122.1 190.308C122.1 190.982 121.554 191.528 120.88 191.528C120.206 191.528 119.66 190.982 119.66 190.308C119.66 189.634 120.206 189.088 120.88 189.088Z" fill="#ED1C24"/>
<path d="M138.541 189.088C139.215 189.088 139.761 189.634 139.761 190.308C139.761 190.982 139.215 191.528 138.541 191.528C137.867 191.528 137.321 190.982 137.321 190.308C137.321 189.634 137.867 189.088 138.541 189.088Z" fill="#ED1C24"/>
<path d="M156.201 189.088C156.875 189.088 157.421 189.634 157.421 190.308C157.421 190.982 156.875 191.528 156.201 191.528C155.527 191.528 154.981 190.982 154.981 190.308C154.981 189.634 155.527 189.088 156.201 189.088Z" fill="white"/>
<path d="M173.861 189.088C174.535 189.088 175.081 189.634 175.081 190.308C175.081 190.982 174.535 191.528 173.861 191.528C173.187 191.528 172.641 190.982 172.641 190.308C172.641 189.634 173.187 189.088 173.861 189.088Z" fill="#ED1C24"/>
<path d="M191.522 189.088C192.196 189.088 192.742 189.634 192.742 190.308C192.742 190.982 192.196 191.528 191.522 191.528C190.848 191.528 190.302 190.982 190.302 190.308C190.302 189.634 190.848 189.088 191.522 189.088Z" fill="#ED1C24"/>
<path d="M210.402 190.308C210.402 189.634 209.856 189.088 209.182 189.088C208.508 189.088 207.962 189.634 207.962 190.308C207.962 190.982 208.508 191.528 209.182 191.528C209.856 191.528 210.402 190.982 210.402 190.308Z" fill="#ED1C24"/>
<path d="M226.842 189.088C227.516 189.088 228.062 189.634 228.062 190.308C228.062 190.982 227.516 191.528 226.842 191.528C226.168 191.528 225.622 190.982 225.622 190.308C225.622 189.634 226.168 189.088 226.842 189.088Z" fill="#ED1C24"/>
<path d="M244.503 189.088C245.177 189.088 245.723 189.634 245.723 190.308C245.723 190.982 245.177 191.528 244.503 191.528C243.829 191.528 243.283 190.982 243.283 190.308C243.283 189.634 243.829 189.088 244.503 189.088Z" fill="#ED1C24"/>
<path d="M103.22 177.217C103.894 177.217 104.44 177.763 104.44 178.437C104.44 179.111 103.894 179.657 103.22 179.657C102.546 179.657 102 179.111 102 178.437C102 177.763 102.546 177.217 103.22 177.217Z" fill="#ED1C24"/>
<path d="M120.88 177.217C121.554 177.217 122.1 177.763 122.1 178.437C122.1 179.111 121.554 179.657 120.88 179.657C120.206 179.657 119.66 179.111 119.66 178.437C119.66 177.763 120.206 177.217 120.88 177.217Z" fill="#ED1C24"/>
<path d="M138.541 177.217C139.215 177.217 139.761 177.763 139.761 178.437C139.761 179.111 139.215 179.657 138.541 179.657C137.867 179.657 137.321 179.111 137.321 178.437C137.321 177.763 137.867 177.217 138.541 177.217Z" fill="#ED1C24"/>
<path d="M156.201 177.217C156.875 177.217 157.421 177.763 157.421 178.437C157.421 179.111 156.875 179.657 156.201 179.657C155.527 179.657 154.981 179.111 154.981 178.437C154.981 177.763 155.527 177.217 156.201 177.217Z" fill="#ED1C24"/>
<path d="M173.861 177.217C174.535 177.217 175.081 177.763 175.081 178.437C175.081 179.111 174.535 179.657 173.861 179.657C173.187 179.657 172.641 179.111 172.641 178.437C172.641 177.763 173.187 177.217 173.861 177.217Z" fill="#ED1C24"/>
<path d="M191.522 177.217C192.196 177.217 192.742 177.763 192.742 178.437C192.742 179.111 192.196 179.657 191.522 179.657C190.848 179.657 190.302 179.111 190.302 178.437C190.302 177.763 190.848 177.217 191.522 177.217Z" fill="white"/>
<path d="M210.402 178.437C210.402 177.763 209.856 177.217 209.182 177.217C208.508 177.217 207.962 177.763 207.962 178.437C207.962 179.111 208.508 179.657 209.182 179.657C209.856 179.657 210.402 179.111 210.402 178.437Z" fill="#ED1C24"/>
<path d="M226.842 177.217C227.516 177.217 228.062 177.763 228.062 178.437C228.062 179.111 227.516 179.657 226.842 179.657C226.168 179.657 225.622 179.111 225.622 178.437C225.622 177.763 226.168 177.217 226.842 177.217Z" fill="#ED1C24"/>
<path d="M244.503 177.217C245.177 177.217 245.723 177.763 245.723 178.437C245.723 179.111 245.177 179.657 244.503 179.657C243.829 179.657 243.283 179.111 243.283 178.437C243.283 177.763 243.829 177.217 244.503 177.217Z" fill="white"/>
<path d="M103.22 165.346C103.894 165.346 104.44 165.892 104.44 166.566C104.44 167.24 103.894 167.786 103.22 167.786C102.546 167.786 102 167.24 102 166.566C102 165.892 102.546 165.346 103.22 165.346Z" fill="#ED1C24"/>
<path d="M120.88 165.346C121.554 165.346 122.1 165.892 122.1 166.566C122.1 167.24 121.554 167.786 120.88 167.786C120.206 167.786 119.66 167.24 119.66 166.566C119.66 165.892 120.206 165.346 120.88 165.346Z" fill="white"/>
<path d="M138.541 165.346C139.215 165.346 139.761 165.892 139.761 166.566C139.761 167.24 139.215 167.786 138.541 167.786C137.867 167.786 137.321 167.24 137.321 166.566C137.321 165.892 137.867 165.346 138.541 165.346Z" fill="#ED1C24"/>
<path d="M156.201 165.346C156.875 165.346 157.421 165.892 157.421 166.566C157.421 167.24 156.875 167.786 156.201 167.786C155.527 167.786 154.981 167.24 154.981 166.566C154.981 165.892 155.527 165.346 156.201 165.346Z" fill="#ED1C24"/>
<path d="M173.861 165.346C174.535 165.346 175.081 165.892 175.081 166.566C175.081 167.24 174.535 167.786 173.861 167.786C173.187 167.786 172.641 167.24 172.641 166.566C172.641 165.892 173.187 165.346 173.861 165.346Z" fill="#ED1C24"/>
<path d="M191.522 165.346C192.196 165.346 192.742 165.892 192.742 166.566C192.742 167.24 192.196 167.786 191.522 167.786C190.848 167.786 190.302 167.24 190.302 166.566C190.302 165.892 190.848 165.346 191.522 165.346Z" fill="#ED1C24"/>
<path d="M210.402 166.566C210.402 165.892 209.856 165.346 209.182 165.346C208.508 165.346 207.962 165.892 207.962 166.566C207.962 167.24 208.508 167.786 209.182 167.786C209.856 167.786 210.402 167.24 210.402 166.566Z" fill="white"/>
<path d="M226.842 165.346C227.516 165.346 228.062 165.892 228.062 166.566C228.062 167.24 227.516 167.786 226.842 167.786C226.168 167.786 225.622 167.24 225.622 166.566C225.622 165.892 226.168 165.346 226.842 165.346Z" fill="#ED1C24"/>
<path d="M244.503 165.346C245.177 165.346 245.723 165.892 245.723 166.566C245.723 167.24 245.177 167.786 244.503 167.786C243.829 167.786 243.283 167.24 243.283 166.566C243.283 165.892 243.829 165.346 244.503 165.346Z" fill="#ED1C24"/>
<path d="M103.22 153.475C103.894 153.475 104.44 154.021 104.44 154.695C104.44 155.369 103.894 155.915 103.22 155.915C102.546 155.915 102 155.369 102 154.695C102 154.021 102.546 153.475 103.22 153.475Z" fill="#ED1C24"/>
<path d="M120.88 153.475C121.554 153.475 122.1 154.021 122.1 154.695C122.1 155.369 121.554 155.915 120.88 155.915C120.206 155.915 119.66 155.369 119.66 154.695C119.66 154.021 120.206 153.475 120.88 153.475Z" fill="#ED1C24"/>
<path d="M138.541 153.475C139.215 153.475 139.761 154.021 139.761 154.695C139.761 155.369 139.215 155.915 138.541 155.915C137.867 155.915 137.321 155.369 137.321 154.695C137.321 154.021 137.867 153.475 138.541 153.475Z" fill="white"/>
<path d="M156.201 153.475C156.875 153.475 157.421 154.021 157.421 154.695C157.421 155.369 156.875 155.915 156.201 155.915C155.527 155.915 154.981 155.369 154.981 154.695C154.981 154.021 155.527 153.475 156.201 153.475Z" fill="#ED1C24"/>
<path d="M173.861 153.475C174.535 153.475 175.081 154.021 175.081 154.695C175.081 155.369 174.535 155.915 173.861 155.915C173.187 155.915 172.641 155.369 172.641 154.695C172.641 154.021 173.187 153.475 173.861 153.475Z" fill="white"/>
<path d="M191.522 153.475C192.196 153.475 192.742 154.021 192.742 154.695C192.742 155.369 192.196 155.915 191.522 155.915C190.848 155.915 190.302 155.369 190.302 154.695C190.302 154.021 190.848 153.475 191.522 153.475Z" fill="#ED1C24"/>
<path d="M210.402 154.695C210.402 154.021 209.856 153.475 209.182 153.475C208.508 153.475 207.962 154.021 207.962 154.695C207.962 155.369 208.508 155.915 209.182 155.915C209.856 155.915 210.402 155.369 210.402 154.695Z" fill="#ED1C24"/>
<path d="M226.842 153.475C227.516 153.475 228.062 154.021 228.062 154.695C228.062 155.369 227.516 155.915 226.842 155.915C226.168 155.915 225.622 155.369 225.622 154.695C225.622 154.021 226.168 153.475 226.842 153.475Z" fill="#ED1C24"/>
<path d="M244.503 153.475C245.177 153.475 245.723 154.021 245.723 154.695C245.723 155.369 245.177 155.915 244.503 155.915C243.829 155.915 243.283 155.369 243.283 154.695C243.283 154.021 243.829 153.475 244.503 153.475Z" fill="#ED1C24"/>
<path d="M103.22 141.604C103.894 141.604 104.44 142.15 104.44 142.824C104.44 143.498 103.894 144.044 103.22 144.044C102.546 144.044 102 143.498 102 142.824C102 142.15 102.546 141.604 103.22 141.604Z" fill="#ED1C24"/>
<path d="M120.88 141.604C121.554 141.604 122.1 142.15 122.1 142.824C122.1 143.498 121.554 144.044 120.88 144.044C120.206 144.044 119.66 143.498 119.66 142.824C119.66 142.15 120.206 141.604 120.88 141.604Z" fill="#ED1C24"/>
<path d="M138.541 141.604C139.215 141.604 139.761 142.15 139.761 142.824C139.761 143.498 139.215 144.044 138.541 144.044C137.867 144.044 137.321 143.498 137.321 142.824C137.321 142.15 137.867 141.604 138.541 141.604Z" fill="#ED1C24"/>
<path d="M156.201 141.604C156.875 141.604 157.421 142.15 157.421 142.824C157.421 143.498 156.875 144.044 156.201 144.044C155.527 144.044 154.981 143.498 154.981 142.824C154.981 142.15 155.527 141.604 156.201 141.604Z" fill="#ED1C24"/>
<path d="M173.861 141.604C174.535 141.604 175.081 142.15 175.081 142.824C175.081 143.498 174.535 144.044 173.861 144.044C173.187 144.044 172.641 143.498 172.641 142.824C172.641 142.15 173.187 141.604 173.861 141.604Z" fill="#ED1C24"/>
<path d="M191.522 141.604C192.196 141.604 192.742 142.15 192.742 142.824C192.742 143.498 192.196 144.044 191.522 144.044C190.848 144.044 190.302 143.498 190.302 142.824C190.302 142.15 190.848 141.604 191.522 141.604Z" fill="#ED1C24"/>
<path d="M210.402 142.824C210.402 142.15 209.856 141.604 209.182 141.604C208.508 141.604 207.962 142.15 207.962 142.824C207.962 143.498 208.508 144.044 209.182 144.044C209.856 144.044 210.402 143.498 210.402 142.824Z" fill="#ED1C24"/>
<path d="M226.842 141.604C227.516 141.604 228.062 142.15 228.062 142.824C228.062 143.498 227.516 144.044 226.842 144.044C226.168 144.044 225.622 143.498 225.622 142.824C225.622 142.15 226.168 141.604 226.842 141.604Z" fill="white"/>
<path d="M244.503 141.604C245.177 141.604 245.723 142.15 245.723 142.824C245.723 143.498 245.177 144.044 244.503 144.044C243.829 144.044 243.283 143.498 243.283 142.824C243.283 142.15 243.829 141.604 244.503 141.604Z" fill="white"/>
<path d="M453.975 178.685C457.827 172.013 466.359 169.727 473.032 173.579C479.704 177.431 481.99 185.963 478.138 192.636C474.286 199.308 465.754 201.594 459.081 197.742C452.409 193.89 450.123 185.358 453.975 178.685Z" stroke="#ED1C24" stroke-miterlimit="10"/>
<path d="M623.576 179.143L616.503 172.07L634.7 153.874L616.503 135.677L623.576 128.604L648.845 153.874L623.576 179.143Z" stroke="#ED1C24" stroke-width="0.6748" stroke-miterlimit="10"/>
<path opacity="0.9375" d="M649.209 153.874L631.013 135.677L638.086 128.604L663.355 153.874L638.086 179.143L631.013 172.07L649.209 153.874Z" stroke="#ED1C24" stroke-width="0.6748" stroke-miterlimit="10"/>
<path opacity="0.875" d="M663.719 153.874L645.523 135.677L652.595 128.604L677.865 153.874L652.595 179.143L645.523 172.07L663.719 153.874Z" stroke="#ED1C24" stroke-width="0.6748" stroke-miterlimit="10"/>
<path opacity="0.8125" d="M678.229 153.874L660.032 135.677L667.105 128.604L692.374 153.874L667.105 179.143L660.032 172.07L678.229 153.874Z" stroke="#ED1C24" stroke-width="0.6748" stroke-miterlimit="10"/>
<path opacity="0.75" d="M692.738 153.874L674.542 135.677L681.615 128.604L706.884 153.874L681.615 179.143L674.542 172.07L692.738 153.874Z" stroke="#ED1C24" stroke-width="0.6748" stroke-miterlimit="10"/>
<path opacity="0.6875" d="M707.248 153.874L689.052 135.677L696.124 128.604L721.394 153.874L696.124 179.143L689.052 172.07L707.248 153.874Z" stroke="#ED1C24" stroke-width="0.6748" stroke-miterlimit="10"/>
<path opacity="0.625" d="M721.758 153.874L703.561 135.677L710.634 128.604L735.903 153.874L710.634 179.143L703.561 172.07L721.758 153.874Z" stroke="#ED1C24" stroke-width="0.6748" stroke-miterlimit="10"/>
<path opacity="0.5625" d="M736.267 153.874L718.071 135.677L725.144 128.604L750.413 153.874L725.144 179.143L718.071 172.07L736.267 153.874Z" stroke="#ED1C24" stroke-width="0.6748" stroke-miterlimit="10"/>
<path opacity="0.5" d="M750.777 153.874L732.581 135.677L739.653 128.604L764.923 153.874L739.653 179.143L732.581 172.07L750.777 153.874Z" stroke="#ED1C24" stroke-width="0.6748" stroke-miterlimit="10"/>
<path opacity="0.4375" d="M765.287 153.874L747.09 135.677L754.163 128.604L779.432 153.874L754.163 179.143L747.09 172.07L765.287 153.874Z" stroke="#ED1C24" stroke-width="0.6748" stroke-miterlimit="10"/>
<path opacity="0.375" d="M779.796 153.874L761.6 135.677L768.673 128.604L793.942 153.874L768.673 179.143L761.6 172.07L779.796 153.874Z" stroke="#ED1C24" stroke-width="0.6748" stroke-miterlimit="10"/>
<path opacity="0.3125" d="M794.306 153.874L776.11 135.677L783.182 128.604L808.451 153.874L783.182 179.143L776.11 172.07L794.306 153.874Z" stroke="#ED1C24" stroke-width="0.6748" stroke-miterlimit="10"/>
<path opacity="0.25" d="M808.815 153.874L790.619 135.677L797.692 128.604L822.961 153.874L797.692 179.143L790.619 172.07L808.815 153.874Z" stroke="#ED1C24" stroke-width="0.6748" stroke-miterlimit="10"/>
<path opacity="0.1875" d="M823.325 153.874L805.129 135.677L812.202 128.604L837.471 153.874L812.202 179.143L805.129 172.07L823.325 153.874Z" stroke="#ED1C24" stroke-width="0.6748" stroke-miterlimit="10"/>
<path opacity="0.125" d="M837.835 153.874L819.638 135.677L826.711 128.604L851.981 153.874L826.711 179.143L819.638 172.07L837.835 153.874Z" stroke="#ED1C24" stroke-width="0.6748" stroke-miterlimit="10"/>
<path opacity="0.0625" d="M852.344 153.874L834.148 135.677L841.221 128.604L866.49 153.874L841.221 179.143L834.148 172.07L852.344 153.874Z" stroke="#ED1C24" stroke-width="0.6748" stroke-miterlimit="10"/>
<path fill-rule="evenodd" clip-rule="evenodd" d="M72.56 318.605L88.6585 309.193L88.6585 290.865L72.56 281.453L56.7073 290.866L56.7073 309.192L72.56 318.605ZM72.5619 318.039L57.1951 308.915L57.1951 291.144L72.5619 282.02L88.1707 291.145L88.1707 308.914L72.5619 318.039Z" fill="#ED1C24"/>
<path d="M74.5122 318.322C74.5122 317.244 73.6386 316.371 72.561 316.371C71.4833 316.371 70.6097 317.244 70.6097 318.322C70.6097 319.399 71.4833 320.273 72.561 320.273C73.6386 320.273 74.5122 319.399 74.5122 318.322Z" fill="#ED1C24"/>
<path d="M74.5122 282.224C74.5122 281.147 73.6386 280.273 72.561 280.273C71.4833 280.273 70.6097 281.147 70.6097 282.224C70.6097 283.302 71.4833 284.175 72.561 284.175C73.6386 284.175 74.5122 283.302 74.5122 282.224Z" fill="#ED1C24"/>
<path d="M58.9024 291.492C58.9024 290.415 58.0288 289.541 56.9512 289.541C55.8736 289.541 55 290.415 55 291.492C55 292.57 55.8736 293.444 56.9512 293.444C58.0288 293.444 58.9024 292.57 58.9024 291.492Z" fill="#ED1C24"/>
<path d="M58.9024 309.053C58.9024 307.976 58.0288 307.102 56.9512 307.102C55.8736 307.102 55 307.976 55 309.053C55 310.131 55.8736 311.005 56.9512 311.005C58.0288 311.005 58.9024 310.131 58.9024 309.053Z" fill="#ED1C24"/>
<path d="M90.1219 291.492C90.1219 290.415 89.2483 289.541 88.1707 289.541C87.0931 289.541 86.2195 290.415 86.2195 291.492C86.2195 292.57 87.0931 293.444 88.1707 293.444C89.2483 293.444 90.1219 292.57 90.1219 291.492Z" fill="#ED1C24"/>
<path d="M90.1219 309.053C90.1219 307.976 89.2483 307.102 88.1707 307.102C87.0931 307.102 86.2195 307.976 86.2195 309.053C86.2195 310.131 87.0931 311.005 88.1707 311.005C89.2483 311.005 90.1219 310.131 90.1219 309.053Z" fill="#ED1C24"/>
</svg>
