<?xml version="1.0" standalone="no"?>
<!DOCTYPE svg PUBLIC "-//W3C//DTD SVG 20010904//EN"
 "http://www.w3.org/TR/2001/REC-SVG-20010904/DTD/svg10.dtd">
<svg version="1.0" xmlns="http://www.w3.org/2000/svg"
 width="436.000000pt" height="71.000000pt" viewBox="0 0 436.000000 71.000000"
 preserveAspectRatio="xMidYMid meet">

<g transform="translate(0.000000,71.000000) scale(0.100000,-0.100000)"
fill="#000000" stroke="none">
<path d="M1340 418 c-63 -33 -119 -64 -123 -68 -5 -4 7 -13 27 -20 34 -11 39
-10 75 19 21 17 44 37 51 46 7 8 17 15 22 15 5 0 -9 -21 -31 -46 -23 -26 -41
-50 -41 -55 0 -14 102 -42 109 -30 8 13 35 191 29 196 -2 2 -55 -23 -118 -57z"/>
<path d="M2109 450 c-10 -6 -15 -18 -12 -33 4 -18 0 -23 -19 -24 -23 -2 -58
-36 -58 -57 0 -6 7 -22 16 -34 12 -18 25 -22 64 -22 l48 0 -1 87 c-2 87 -8
100 -38 83z m-9 -115 c0 -50 -15 -59 -31 -19 -11 32 -3 64 17 64 10 0 14 -13
14 -45z"/>
<path d="M1627 432 c-20 -22 -22 -56 -4 -69 6 -6 26 -15 42 -20 19 -6 30 -16
30 -28 0 -29 -21 -28 -49 1 -22 25 -26 26 -32 10 -18 -46 84 -69 118 -26 23
29 10 54 -40 78 -41 19 -56 52 -23 52 11 0 25 -9 31 -20 14 -26 40 -26 40 0 0
39 -83 55 -113 22z"/>
<path d="M2233 438 c3 -8 0 -47 -7 -86 -11 -67 -11 -72 6 -72 10 0 15 5 12 13
-2 7 -1 31 4 52 l9 40 12 -27 c6 -16 15 -39 21 -53 14 -37 26 -31 40 20 19 68
34 56 33 -27 0 -13 8 -18 27 -18 l27 0 -14 62 c-8 35 -13 73 -10 85 3 19 0 23
-19 23 -18 0 -26 -10 -41 -57 l-19 -57 -20 55 c-15 42 -24 55 -43 57 -17 3
-22 0 -18 -10z"/>
<path d="M1803 392 c-31 -5 -45 -26 -41 -64 3 -37 38 -61 71 -49 31 12 33 31
3 31 -33 0 -33 13 -1 28 45 21 20 63 -32 54z m22 -32 c0 -7 -6 -15 -12 -17 -8
-3 -13 4 -13 17 0 13 5 20 13 18 6 -3 12 -11 12 -18z"/>
<path d="M1947 394 c-4 -4 -17 -8 -29 -9 -13 -1 -25 -3 -28 -4 -3 0 -5 -23 -5
-51 0 -47 2 -50 25 -50 24 0 25 2 21 51 -2 40 0 50 10 47 9 -3 15 -23 17 -51
3 -43 5 -47 29 -47 21 0 24 3 19 23 -3 12 -6 32 -6 44 0 33 -36 64 -53 47z"/>
<path d="M2450 382 c-25 -20 -30 -63 -10 -87 15 -18 61 -20 78 -3 19 19 14 26
-13 20 -14 -2 -25 0 -25 5 0 5 11 16 25 23 27 14 29 19 17 36 -14 22 -49 25
-72 6z m40 -22 c0 -11 -7 -20 -15 -20 -15 0 -21 21 -8 33 12 13 23 7 23 -13z"/>
<path d="M2688 393 c-26 -6 -35 -45 -13 -58 39 -24 50 -34 42 -42 -5 -4 -14 0
-21 10 -17 22 -38 22 -34 0 3 -14 13 -18 48 -18 39 0 45 3 48 22 2 16 -5 26
-27 38 -17 8 -31 20 -31 25 0 16 18 11 29 -7 8 -15 12 -16 22 -5 21 20 -23 45
-63 35z"/>
<path d="M2798 389 c-19 -11 -25 -39 -8 -39 6 0 13 7 16 15 8 19 34 20 34 1 0
-7 -14 -16 -31 -20 -26 -5 -30 -10 -27 -33 3 -26 6 -28 60 -31 l56 -3 -9 43
c-14 61 -53 90 -91 67z m45 -73 c6 -15 -1 -26 -15 -26 -4 0 -8 9 -8 20 0 23
15 27 23 6z"/>
<path d="M2932 385 c-40 -29 -23 -85 25 -85 16 0 23 -6 23 -20 0 -23 -28 -27
-36 -5 -4 8 -12 15 -20 15 -16 0 -19 -26 -3 -35 19 -12 81 -7 96 8 13 12 12
16 -1 30 -9 9 -12 18 -7 21 5 3 11 22 13 41 3 31 1 35 -18 35 -12 0 -28 2 -36
5 -7 3 -23 -2 -36 -10z m46 -44 c3 -24 0 -32 -10 -29 -7 3 -14 19 -16 37 -3
24 0 32 10 29 7 -3 14 -19 16 -37z"/>
<path d="M3073 390 c-27 -11 -39 -53 -24 -86 8 -18 18 -24 45 -24 18 0 39 7
46 15 11 13 8 15 -21 15 l-34 1 28 22 c32 27 34 42 8 57 -22 11 -19 11 -48 0z
m37 -24 c0 -7 -7 -19 -15 -26 -13 -11 -15 -8 -15 14 0 16 5 26 15 26 8 0 15
-6 15 -14z"/>
<path d="M2551 376 c-16 -20 -4 -43 30 -55 16 -5 29 -15 29 -20 0 -17 -21 -13
-35 6 -14 19 -37 9 -28 -12 7 -19 76 -20 92 -1 16 19 3 45 -25 52 -13 3 -24
12 -24 20 0 19 10 18 25 -3 7 -9 17 -13 24 -9 9 6 9 11 0 22 -15 18 -73 18
-88 0z"/>
<path d="M1300 265 c0 -30 15 -33 29 -6 8 15 7 20 -5 25 -23 9 -24 8 -24 -19z"/>
</g>
</svg>
