<?xml version="1.0" standalone="no"?>
<!DOCTYPE svg PUBLIC "-//W3C//DTD SVG 20010904//EN"
 "http://www.w3.org/TR/2001/REC-SVG-20010904/DTD/svg10.dtd">
<svg version="1.0" xmlns="http://www.w3.org/2000/svg"
 width="184.000000pt" height="75.000000pt" viewBox="0 0 184.000000 75.000000"
 preserveAspectRatio="xMidYMid meet">

<g transform="translate(0.000000,75.000000) scale(0.100000,-0.100000)"
fill="#000000" stroke="none">
<path d="M102 735 c-4 -9 -19 -17 -33 -17 -32 -2 -54 -19 -38 -28 8 -5 5 -14
-10 -29 -22 -22 -28 -51 -11 -51 6 0 10 -11 10 -25 0 -14 -4 -25 -10 -25 -5 0
-10 -7 -10 -15 0 -8 5 -15 10 -15 6 0 10 -11 10 -25 0 -14 -4 -25 -10 -25 -5
0 -10 -9 -10 -20 0 -11 5 -20 10 -20 6 0 10 -9 10 -20 0 -11 -4 -20 -10 -20
-5 0 -10 -9 -10 -20 0 -11 5 -20 10 -20 6 0 10 -11 10 -25 0 -14 -4 -25 -10
-25 -5 0 -10 -7 -10 -15 0 -8 5 -15 10 -15 6 0 10 -11 10 -25 0 -14 -4 -25
-10 -25 -5 0 -10 -9 -10 -20 0 -11 5 -20 10 -20 6 0 10 -9 10 -20 0 -11 -4
-20 -10 -20 -17 0 -11 -29 10 -50 12 -12 18 -25 15 -31 -9 -14 14 -39 29 -33
8 3 20 -2 29 -10 17 -18 47 -21 47 -6 0 6 9 10 20 10 11 0 20 -4 20 -10 0 -5
9 -10 20 -10 11 0 20 5 20 10 0 6 9 10 20 10 11 0 20 -4 20 -10 0 -5 9 -10 20
-10 11 0 20 5 20 10 0 6 9 10 20 10 11 0 20 -4 20 -10 0 -5 9 -10 20 -10 11 0
20 5 20 10 0 6 9 10 20 10 11 0 20 -4 20 -10 0 -5 9 -10 20 -10 11 0 20 5 20
10 0 6 9 10 20 10 11 0 20 -4 20 -10 0 -5 9 -10 20 -10 11 0 20 5 20 10 0 6 9
10 20 10 11 0 20 -4 20 -10 0 -5 9 -10 20 -10 11 0 20 5 20 10 0 6 9 10 20 10
11 0 20 -4 20 -10 0 -5 9 -10 20 -10 11 0 20 5 20 10 0 6 9 10 20 10 11 0 20
-4 20 -10 0 -5 9 -10 20 -10 11 0 20 5 20 10 0 6 9 10 20 10 11 0 20 -4 20
-10 0 -5 9 -10 20 -10 11 0 20 5 20 10 0 6 9 10 20 10 11 0 20 -4 20 -10 0 -5
9 -10 20 -10 11 0 20 5 20 10 0 6 9 10 20 10 11 0 20 -4 20 -10 0 -5 9 -10 20
-10 11 0 20 5 20 10 0 6 9 10 20 10 11 0 20 -4 20 -10 0 -5 9 -10 20 -10 11 0
20 5 20 10 0 6 9 10 20 10 11 0 20 -4 20 -10 0 -5 9 -10 20 -10 11 0 20 5 20
10 0 6 9 10 20 10 11 0 20 -4 20 -10 0 -5 9 -10 20 -10 11 0 20 5 20 10 0 6 9
10 20 10 11 0 20 -4 20 -10 0 -5 9 -10 20 -10 11 0 20 5 20 10 0 6 9 10 20 10
11 0 20 -4 20 -10 0 -5 9 -10 20 -10 11 0 20 5 20 10 0 6 9 10 20 10 11 0 20
-4 20 -10 0 -5 9 -10 20 -10 11 0 20 5 20 10 0 6 9 10 20 10 11 0 20 -4 20
-10 0 -5 9 -10 20 -10 11 0 20 5 20 10 0 6 9 10 20 10 11 0 20 -4 20 -10 0 -5
9 -10 20 -10 11 0 20 5 20 10 0 6 9 10 20 10 11 0 20 -4 20 -10 0 -16 37 -11
44 6 4 10 14 14 26 11 21 -5 45 16 35 32 -3 6 3 19 15 31 21 21 27 50 10 50
-5 0 -10 9 -10 20 0 11 5 20 10 20 6 0 10 9 10 20 0 11 -4 20 -10 20 -5 0 -10
11 -10 25 0 14 5 25 10 25 6 0 10 7 10 15 0 8 -4 15 -10 15 -5 0 -10 11 -10
25 0 14 5 25 10 25 6 0 10 9 10 20 0 11 -4 20 -10 20 -5 0 -10 9 -10 20 0 11
5 20 10 20 6 0 10 9 10 20 0 11 -4 20 -10 20 -5 0 -10 11 -10 25 0 14 5 25 10
25 6 0 10 7 10 15 0 8 -4 15 -10 15 -5 0 -10 11 -10 25 0 14 5 25 10 25 17 0
11 29 -11 51 -15 15 -18 24 -10 29 16 9 -6 26 -38 28 -14 0 -29 8 -33 17 -10
17 -38 21 -38 5 0 -5 -9 -10 -20 -10 -11 0 -20 5 -20 10 0 6 -9 10 -20 10 -11
0 -20 -4 -20 -10 0 -5 -9 -10 -20 -10 -11 0 -20 5 -20 10 0 6 -9 10 -20 10
-11 0 -20 -4 -20 -10 0 -5 -9 -10 -20 -10 -11 0 -20 5 -20 10 0 6 -9 10 -20
10 -11 0 -20 -4 -20 -10 0 -5 -9 -10 -20 -10 -11 0 -20 5 -20 10 0 6 -9 10
-20 10 -11 0 -20 -4 -20 -10 0 -5 -9 -10 -20 -10 -11 0 -20 5 -20 10 0 6 -9
10 -20 10 -11 0 -20 -4 -20 -10 0 -5 -9 -10 -20 -10 -11 0 -20 5 -20 10 0 6
-9 10 -20 10 -11 0 -20 -4 -20 -10 0 -5 -9 -10 -20 -10 -11 0 -20 5 -20 10 0
6 -9 10 -20 10 -11 0 -20 -4 -20 -10 0 -5 -9 -10 -20 -10 -11 0 -20 5 -20 10
0 6 -9 10 -20 10 -11 0 -20 -4 -20 -10 0 -5 -9 -10 -20 -10 -11 0 -20 5 -20
10 0 6 -9 10 -20 10 -11 0 -20 -4 -20 -10 0 -5 -9 -10 -20 -10 -11 0 -20 5
-20 10 0 6 -9 10 -20 10 -11 0 -20 -4 -20 -10 0 -5 -9 -10 -20 -10 -11 0 -20
5 -20 10 0 6 -9 10 -20 10 -11 0 -20 -4 -20 -10 0 -5 -9 -10 -20 -10 -11 0
-20 5 -20 10 0 6 -9 10 -20 10 -11 0 -20 -4 -20 -10 0 -5 -9 -10 -20 -10 -11
0 -20 5 -20 10 0 6 -9 10 -20 10 -11 0 -20 -4 -20 -10 0 -5 -9 -10 -20 -10
-11 0 -20 5 -20 10 0 6 -9 10 -20 10 -11 0 -20 -4 -20 -10 0 -5 -9 -10 -20
-10 -11 0 -20 5 -20 10 0 6 -9 10 -20 10 -11 0 -20 -4 -20 -10 0 -5 -9 -10
-20 -10 -11 0 -20 5 -20 10 0 6 -9 10 -20 10 -11 0 -20 -4 -20 -10 0 -5 -9
-10 -20 -10 -11 0 -20 5 -20 10 0 6 -9 10 -20 10 -11 0 -20 -4 -20 -10 0 -5
-9 -10 -20 -10 -11 0 -20 5 -20 10 0 6 -9 10 -20 10 -11 0 -20 -4 -20 -10 0
-5 -9 -10 -20 -10 -11 0 -20 5 -20 10 0 6 -9 10 -20 10 -11 0 -20 -4 -20 -10
0 -5 -9 -10 -20 -10 -11 0 -20 5 -20 10 0 16 -28 12 -38 -5z m353 -265 c11
-12 15 -28 11 -43 -7 -28 -118 -137 -139 -137 -24 0 -40 26 -28 47 17 32 101
108 101 92 0 -8 -20 -35 -45 -59 -47 -46 -54 -60 -32 -60 22 0 129 116 125
136 -7 39 -39 27 -104 -37 -70 -70 -79 -98 -40 -124 31 -21 44 -14 116 59 30
31 59 56 64 56 6 0 -21 -31 -59 -70 -76 -76 -108 -87 -145 -50 -37 37 -26 68
49 142 73 72 97 80 126 48z m229 -81 c31 -72 31 -69 6 -69 -11 0 -19 6 -18 13
2 7 -8 12 -27 12 -19 0 -29 -5 -27 -12 1 -7 -5 -13 -13 -13 -11 0 -11 8 5 43
11 23 20 52 20 65 0 41 27 22 54 -39z m407 39 c0 -13 1 -42 2 -66 2 -31 -2
-42 -13 -42 -12 0 -15 14 -15 65 0 45 4 65 13 65 6 0 12 -10 13 -22z m209 7
c10 -12 10 -15 -4 -15 -9 0 -16 5 -16 10 0 6 -7 10 -15 10 -18 0 -20 -40 -2
-41 10 0 10 -2 0 -6 -7 -2 -13 -20 -13 -39 0 -24 -5 -34 -15 -34 -22 0 -24 91
-3 118 14 17 53 15 68 -3z m70 -50 c0 -51 -3 -65 -15 -65 -12 0 -15 14 -15 65
0 51 3 65 15 65 12 0 15 -14 15 -65z m-604 20 c9 -8 11 -15 5 -15 -6 0 -11
-11 -11 -25 0 -14 5 -25 10 -25 6 0 10 -4 10 -10 0 -5 -11 -10 -24 -10 -21 0
-24 6 -28 40 -2 22 1 45 6 50 13 13 15 13 32 -5z m70 0 c9 -8 11 -15 5 -15 -6
0 -11 -11 -11 -25 0 -14 5 -25 10 -25 6 0 10 -5 10 -11 0 -6 -10 -9 -22 -7
-18 2 -24 12 -29 40 -3 21 -1 42 5 48 13 13 15 13 32 -5z m87 -7 c9 -7 20 -28
23 -45 6 -29 4 -33 -14 -33 -15 0 -19 5 -15 20 4 14 0 20 -12 20 -12 0 -15 -5
-10 -20 5 -14 2 -20 -10 -20 -26 0 -15 44 12 48 14 2 20 8 16 18 -4 11 -8 12
-19 3 -8 -7 -18 -9 -21 -5 -4 4 -1 11 7 16 20 13 23 12 43 -2z m108 1 c11 -5
17 -15 13 -20 -4 -6 -13 -4 -25 7 -17 15 -19 15 -25 0 -11 -28 4 -49 30 -44
17 4 23 1 19 -9 -3 -7 -18 -13 -34 -13 -22 0 -32 7 -41 26 -11 23 -10 29 11
45 27 22 27 22 52 8z m121 -44 c3 -29 1 -35 -14 -35 -13 0 -18 8 -18 29 0 16
-3 37 -7 46 -5 15 -3 16 14 6 13 -7 22 -23 25 -46z m309 39 c10 -13 10 -17 -2
-25 -22 -14 -28 -11 -22 11 3 11 0 20 -6 20 -6 0 -10 -13 -9 -30 2 -24 7 -30
26 -30 13 0 20 -4 17 -10 -9 -14 -48 -13 -63 2 -17 17 -15 44 4 62 20 20 38
20 55 0z m85 1 c17 -13 17 -14 2 -15 -10 0 -18 5 -18 10 0 6 -4 10 -10 10 -20
0 -10 -21 15 -32 14 -6 24 -18 23 -26 -4 -21 -28 -27 -28 -8 0 9 -6 16 -14 16
-7 0 -20 7 -27 16 -11 14 -10 18 6 30 24 17 27 17 51 -1z m-226 -35 c0 -31 -4
-40 -17 -40 -14 0 -18 8 -16 37 1 21 2 39 2 41 1 1 8 2 16 2 11 0 15 -11 15
-40z m196 -38 c-9 -9 -37 8 -31 18 5 8 11 7 21 -1 8 -6 12 -14 10 -17z"/>
<path d="M636 395 c-10 -26 -7 -35 9 -35 17 0 19 18 6 38 -7 11 -10 10 -15 -3z"/>
</g>
</svg>
