<?xml version="1.0" standalone="no"?>
<!DOCTYPE svg PUBLIC "-//W3C//DTD SVG 20010904//EN"
 "http://www.w3.org/TR/2001/REC-SVG-20010904/DTD/svg10.dtd">
<svg version="1.0" xmlns="http://www.w3.org/2000/svg"
 width="436.000000pt" height="71.000000pt" viewBox="0 0 436.000000 71.000000"
 preserveAspectRatio="xMidYMid meet">

<g transform="translate(0.000000,71.000000) scale(0.100000,-0.100000)"
fill="#000000" stroke="none">
<path d="M60 655 c-51 -27 -55 -48 -55 -306 l0 -239 33 -32 32 -33 2105 -3
2105 -2 38 34 37 34 3 231 c3 256 -3 287 -59 316 -41 22 -4200 22 -4239 0z
m1399 -197 c0 -37 -25 -177 -32 -184 -7 -8 -107 25 -107 35 0 4 16 26 35 48
44 52 45 66 3 27 -74 -67 -74 -67 -113 -54 -27 9 -34 15 -26 23 12 12 219 123
234 126 4 0 7 -9 6 -21z m689 -91 l3 -87 -50 0 c-43 0 -53 4 -67 25 -9 14 -13
32 -9 45 8 26 50 54 66 44 8 -5 10 1 7 20 -5 26 15 49 37 42 6 -1 11 -42 13
-89z m-427 73 c22 -12 26 -50 4 -50 -8 0 -19 9 -25 20 -6 11 -20 20 -31 20
-35 0 -18 -33 28 -54 47 -21 59 -47 34 -77 -34 -42 -134 -18 -117 27 6 16 10
15 32 -10 28 -29 49 -30 49 -1 0 12 -11 22 -30 28 -41 13 -55 26 -55 50 0 47
62 73 111 47z m573 -49 l20 -55 19 57 c15 47 23 57 41 57 19 0 22 -4 19 -23
-3 -12 2 -50 10 -85 l14 -62 -29 0 c-17 0 -28 5 -27 13 4 31 -2 77 -10 77 -4
0 -14 -20 -21 -45 -15 -53 -26 -57 -44 -12 -7 17 -17 41 -21 52 -7 17 -9 13
-15 -20 -4 -22 -5 -45 -3 -52 3 -8 -3 -13 -14 -13 -18 0 -19 3 -7 72 7 39 10
78 7 86 -4 10 1 13 18 10 19 -2 28 -15 43 -57z m-453 -1 c26 -15 24 -38 -6
-52 -32 -15 -32 -28 1 -28 15 0 24 -5 22 -12 -7 -19 -44 -27 -69 -14 -19 9
-24 19 -24 51 0 32 5 42 25 52 30 15 27 15 51 3z m141 -2 c9 -7 19 -34 23 -60
6 -46 5 -48 -19 -48 -23 0 -25 4 -28 48 -4 59 -23 57 -23 -3 0 -41 -2 -45 -25
-45 -24 0 -25 3 -24 53 0 49 2 52 27 53 15 1 30 4 34 8 9 9 17 8 35 -6z m522
2 c33 -12 33 -37 1 -52 -14 -6 -25 -16 -25 -21 0 -5 11 -7 25 -5 28 6 36 -16
9 -26 -31 -12 -63 -6 -78 16 -22 31 -20 45 9 73 28 29 26 28 59 15z m138 -13
c13 -21 -12 -34 -26 -14 -16 21 -26 22 -26 3 0 -8 11 -17 24 -20 28 -7 41 -33
25 -52 -14 -17 -85 -19 -95 -3 -3 6 -1 16 6 22 9 9 14 8 24 -5 15 -20 36 -24
36 -7 0 5 -13 15 -29 20 -40 14 -48 39 -20 62 24 19 67 16 81 -6z m113 2 c5
-6 4 -14 -4 -21 -10 -11 -14 -10 -22 5 -11 18 -29 23 -29 7 0 -5 14 -17 31
-25 22 -12 29 -22 27 -38 -3 -19 -9 -22 -48 -22 -35 0 -45 4 -48 18 -4 21 23
23 32 2 6 -17 26 -21 26 -5 0 5 -13 16 -30 25 -36 19 -40 52 -7 65 23 9 55 4
72 -11z m104 4 c11 -10 25 -37 30 -60 l9 -43 -54 0 c-42 0 -55 4 -64 19 -12
23 10 51 41 51 10 0 19 7 19 15 0 8 -6 15 -14 15 -8 0 -16 -7 -20 -15 -7 -19
-26 -20 -26 0 0 14 26 34 46 35 7 0 21 -8 33 -17z m151 7 c12 0 15 -8 12 -35
-2 -19 -8 -38 -14 -41 -5 -3 -1 -12 9 -19 15 -11 15 -15 3 -29 -19 -24 -103
-18 -108 7 -4 21 23 23 32 2 3 -8 13 -15 21 -15 24 0 14 34 -10 38 -30 6 -45
22 -45 48 0 28 38 57 65 50 11 -3 27 -6 35 -6z m111 0 c26 -15 24 -30 -8 -58
l-28 -23 33 4 c17 2 32 1 32 -3 0 -16 -27 -30 -57 -30 -73 0 -68 105 5 119 2
1 12 -4 23 -9z m-1792 -109 c12 -8 12 -12 2 -25 -19 -23 -31 -20 -31 9 0 27 6
30 29 16z m-1041 -216 c9 -9 -202 -5 -216 4 -7 4 37 6 99 4 62 -2 115 -5 117
-8z m45 -2 c-7 -2 -19 -2 -25 0 -7 3 -2 5 12 5 14 0 19 -2 13 -5z m3920 0 c-7
-2 -19 -2 -25 0 -7 3 -2 5 12 5 14 0 19 -2 13 -5z"/>
<path d="M2065 361 c-7 -22 10 -71 25 -71 5 0 10 20 10 45 0 32 -4 45 -14 45
-8 0 -17 -8 -21 -19z"/>
<path d="M1800 360 c0 -13 5 -20 13 -17 6 2 12 10 12 17 0 7 -6 15 -12 18 -8
2 -13 -5 -13 -18z"/>
<path d="M2467 373 c-13 -12 -7 -33 8 -33 8 0 15 9 15 20 0 20 -11 26 -23 13z"/>
<path d="M2820 310 c0 -19 11 -26 23 -14 8 8 -3 34 -14 34 -5 0 -9 -9 -9 -20z"/>
<path d="M2950 362 c0 -28 10 -52 22 -52 14 0 5 63 -9 68 -8 2 -13 -5 -13 -16z"/>
<path d="M3080 359 c0 -24 23 -21 28 4 2 10 -3 17 -12 17 -10 0 -16 -9 -16
-21z"/>
</g>
</svg>
